<?xml version="1.0" standalone="no"?>
<!DOCTYPE svg PUBLIC "-//W3C//DTD SVG 20010904//EN"
 "http://www.w3.org/TR/2001/REC-SVG-20010904/DTD/svg10.dtd">
<svg version="1.0" xmlns="http://www.w3.org/2000/svg"
 width="500.000000pt" height="500.000000pt" viewBox="0 0 500.000000 500.000000"
 preserveAspectRatio="xMidYMid meet">

<g transform="translate(0.000000,500.000000) scale(0.100000,-0.100000)"
fill="##B4DEBB" stroke="none">
<path d="M967 3443 c-24 -27 -73 -79 -108 -118 -35 -38 -77 -83 -92 -100 -15
-16 -40 -55 -55 -85 -36 -73 -39 -199 -5 -272 41 -90 142 -177 223 -193 71
-13 71 -13 64 -53 -15 -87 -92 -182 -175 -216 -93 -38 -208 -26 -290 32 -49
34 -264 231 -264 242 0 11 238 231 275 255 19 12 52 27 73 34 44 15 53 45 10
35 -63 -14 -120 -52 -226 -148 -62 -56 -129 -117 -149 -136 -21 -18 -38 -36
-38 -40 0 -4 65 -68 145 -141 184 -170 227 -194 345 -193 72 0 93 5 137 27
102 53 165 129 188 231 12 51 12 51 48 49 79 -5 164 -70 208 -158 29 -60 31
-70 27 -148 -3 -66 -10 -93 -29 -125 -32 -54 -241 -290 -257 -291 -30 -2 -264
263 -288 326 -17 45 -51 63 -39 21 24 -82 63 -133 277 -363 l47 -50 23 26 c13
14 68 74 123 134 157 168 185 219 185 334 0 84 -12 127 -53 187 -51 76 -129
127 -229 148 -22 5 -28 12 -28 34 1 72 77 174 165 220 42 22 63 26 130 26 67
0 88 -4 130 -26 49 -25 305 -250 305 -268 0 -5 -61 -65 -135 -133 -101 -93
-148 -130 -190 -147 -31 -13 -55 -29 -55 -37 0 -10 7 -12 23 -8 51 15 125 58
168 97 25 24 92 85 148 137 l103 94 -24 21 c-13 12 -81 74 -153 140 -71 65
-143 125 -160 134 -41 21 -123 42 -166 42 -49 0 -141 -31 -189 -65 -54 -37
-116 -132 -131 -200 -14 -62 -19 -64 -92 -39 -60 20 -131 84 -165 148 -36 68
-38 186 -5 258 21 45 244 300 269 306 7 2 69 -59 138 -135 94 -102 131 -150
144 -185 16 -47 42 -65 42 -30 0 38 -53 121 -136 212 -48 52 -107 119 -133
148 -25 28 -49 52 -52 52 -4 0 -27 -21 -52 -47z"/>
<path d="M4090 3200 c-132 -17 -234 -64 -317 -148 -76 -75 -111 -143 -129
-245 -45 -255 107 -485 362 -551 78 -20 232 -21 307 -1 229 60 377 242 377
465 0 300 -275 520 -600 480z m176 -34 c135 -36 227 -135 265 -286 8 -32 14
-103 13 -170 0 -189 -53 -306 -172 -387 -147 -99 -359 -78 -478 49 -86 92
-121 213 -111 392 6 120 24 184 73 257 87 132 247 189 410 145z"/>
<path d="M2213 3157 c21 -17 30 -35 37 -82 12 -71 12 -406 1 -590 -8 -143 -22
-184 -69 -209 -24 -14 5 -15 304 -16 295 0 339 2 407 19 98 25 145 50 190 100
66 74 72 153 17 229 -48 66 -138 109 -280 131 l-45 8 45 12 c92 25 150 54 185
92 41 45 49 73 43 140 -4 41 -12 57 -44 90 -78 80 -185 99 -557 99 l-262 0 28
-23z m480 -7 c142 -16 197 -57 212 -155 13 -93 -29 -166 -117 -206 -48 -21
-70 -24 -235 -27 l-183 -4 0 194 c0 107 3 198 7 201 10 10 217 8 316 -3z m155
-450 c174 -76 194 -289 36 -377 -57 -32 -169 -46 -316 -41 -137 5 -170 16
-188 64 -10 24 -15 376 -6 385 2 2 98 1 213 -2 188 -5 213 -8 261 -29z"/>
<path d="M3311 3154 l24 -26 0 -361 c-1 -199 -4 -378 -8 -398 -4 -21 -19 -53
-32 -73 l-24 -36 126 0 126 0 -26 26 c-15 14 -30 43 -34 63 -5 20 -8 205 -8
412 0 357 1 378 19 398 l19 21 -103 0 -103 0 24 -26z"/>
<path d="M790 2983 c0 -7 22 -18 115 -62 29 -13 -24 33 -56 50 -40 20 -59 24
-59 12z"/>
<path d="M1316 2928 c-13 -46 -39 -109 -47 -113 -5 -4 -14 -16 -20 -28 l-12
-22 23 20 c22 20 80 124 80 145 0 14 -20 13 -24 -2z"/>
<path d="M758 2553 c-28 -31 -60 -102 -55 -120 4 -15 6 -14 13 6 4 14 19 49
34 78 15 29 26 53 25 53 -1 0 -9 -8 -17 -17z"/>
<path d="M1099 2463 c24 -45 171 -126 171 -94 0 5 -23 17 -51 26 -29 10 -70
34 -92 54 -29 26 -37 30 -28 14z"/>
<path d="M2880 2108 c-60 -41 -93 -92 -98 -151 -4 -49 -2 -57 28 -91 18 -21
56 -49 84 -63 73 -36 116 -71 116 -93 0 -47 -148 -108 -233 -97 -91 12 -73 58
47 118 48 23 85 44 83 46 -7 6 -142 -47 -167 -65 -61 -46 -63 -92 -5 -121 34
-16 105 -6 198 29 58 22 97 62 97 101 0 29 -37 64 -110 104 -89 49 -120 83
-120 134 0 101 132 187 203 131 54 -43 27 -122 -53 -154 -42 -16 -53 -36 -22
-36 27 0 99 59 113 92 40 98 -70 178 -161 116z"/>
<path d="M3885 2119 c-102 -11 -135 -19 -135 -31 0 -7 32 -8 103 -3 l103 7
-11 -73 -11 -74 -44 -7 c-71 -12 -136 -63 -170 -133 -38 -80 -48 -163 -24
-203 31 -53 79 -49 109 8 9 17 19 30 23 30 4 0 16 14 25 30 10 17 15 30 12 30
-4 0 0 7 8 15 17 16 91 238 109 327 l12 56 95 8 c64 4 89 10 76 15 -24 9 -182
8 -280 -2z m45 -196 c0 -15 -35 -118 -45 -133 -5 -8 -24 -44 -41 -80 -47 -99
-123 -152 -138 -97 -21 80 11 194 70 248 52 48 154 89 154 62z"/>
<path d="M4091 1798 c-38 -87 -95 -168 -117 -168 -14 0 -16 8 -10 54 3 30 15
75 26 101 22 51 25 75 11 75 -18 0 -54 -114 -55 -174 -1 -45 3 -61 16 -69 25
-16 67 18 98 78 l25 49 3 -35 c7 -64 41 -78 79 -31 l22 27 1 -36 c0 -52 21
-67 58 -40 28 20 60 76 50 87 -3 3 -15 -11 -26 -30 -11 -19 -30 -39 -41 -46
-19 -10 -21 -8 -21 23 0 49 49 138 88 161 18 10 35 16 38 13 3 -2 -4 -27 -15
-55 -15 -39 -18 -58 -11 -82 11 -39 29 -62 42 -54 5 3 16 -3 24 -15 8 -12 21
-21 27 -21 7 0 39 48 72 108 l60 107 5 -78 c5 -79 14 -96 51 -97 17 0 39 19
39 34 0 5 -9 1 -20 -9 -39 -35 -48 3 -37 155 1 16 -4 26 -15 28 -18 3 -54 -47
-126 -175 l-33 -58 7 45 c3 25 15 68 25 95 23 60 24 85 5 85 -13 0 -56 -117
-56 -153 0 -17 -28 -43 -37 -33 -10 10 -4 78 11 131 8 26 13 52 10 57 -9 15
-66 8 -93 -11 -15 -11 -42 -47 -59 -79 -30 -56 -66 -92 -93 -92 -14 0 -5 80
16 141 14 40 13 59 -4 59 -5 0 -23 -33 -40 -72z"/>
<path d="M3122 1832 c-59 -55 -92 -166 -62 -212 8 -13 13 -13 37 2 15 9 38 33
50 55 18 29 23 33 23 17 0 -23 36 -61 47 -51 3 4 12 -2 20 -13 8 -11 20 -20
26 -20 7 0 39 48 72 108 l60 107 5 -78 c5 -79 14 -96 50 -97 18 0 40 19 40 34
0 5 -9 1 -20 -9 -15 -13 -24 -15 -31 -8 -10 10 -12 80 -6 163 1 16 -4 26 -15
28 -18 3 -53 -46 -126 -175 l-33 -58 6 40 c4 22 15 65 26 95 23 65 24 90 5 90
-13 0 -56 -117 -56 -153 0 -22 -30 -44 -39 -28 -9 13 3 105 19 146 13 35 6 45
-35 45 -22 0 -42 -9 -63 -28z m73 -14 c-16 -53 -70 -151 -94 -170 l-26 -20 -3
30 c-5 47 35 129 77 158 44 30 54 30 46 2z"/>
</g>
</svg>
